<?xml version="1.0" encoding="utf-8"?>
<!-- Generator: Adobe Illustrator 16.0.0, SVG Export Plug-In . SVG Version: 6.00 Build 0)  -->
<!DOCTYPE svg PUBLIC "-//W3C//DTD SVG 1.1//EN" "http://www.w3.org/Graphics/SVG/1.1/DTD/svg11.dtd">
<svg version="1.1" id="Layer_1" xmlns="http://www.w3.org/2000/svg" xmlns:xlink="http://www.w3.org/1999/xlink" x="0px" y="0px"
	 width="19px" height="30px" viewBox="0 0 19 30" enable-background="new 0 0 19 30" xml:space="preserve">
<rect x="-39" y="-11" display="none" fill="#3A5783" width="65" height="78"/>
<g opacity="0.3">
	<path d="M3,28.991c0.541,0,1.08-0.218,1.474-0.648l12.234-13.335L4.577,1.643c-0.742-0.818-2.006-0.88-2.825-0.137
		C0.934,2.248,0.873,3.514,1.615,4.331l9.677,10.661L1.526,25.64c-0.747,0.813-0.692,2.079,0.122,2.825
		C2.032,28.817,2.517,28.991,3,28.991z"/>
</g>
<path fill="#FFFFFF" fill-opacity="0.4" d="M0.971,29.21C1.547,29.739,2.274,30,2.999,30c0.811,0,1.619-0.327,2.211-0.972
	l12.852-13.999L5.318,0.984C4.205-0.242,2.307-0.336,1.08,0.778c-1.227,1.113-1.319,3.011-0.206,4.237l9.064,9.99L0.79,24.972
	C-0.331,26.191-0.25,28.09,0.971,29.21z M1.526,25.64l9.766-10.647L1.615,4.331C0.873,3.514,0.934,2.248,1.752,1.506
	c0.819-0.743,2.083-0.682,2.825,0.137l12.13,13.365L4.474,28.343C4.08,28.773,3.541,28.991,3,28.991
	c-0.483,0-0.967-0.174-1.352-0.526C0.834,27.719,0.779,26.453,1.526,25.64z"/>
</svg>
