<?xml version="1.0" encoding="utf-8"?>
<!-- Generator: Adobe Illustrator 16.0.0, SVG Export Plug-In . SVG Version: 6.00 Build 0)  -->
<!DOCTYPE svg PUBLIC "-//W3C//DTD SVG 1.1//EN" "http://www.w3.org/Graphics/SVG/1.1/DTD/svg11.dtd">
<svg version="1.1" id="Layer_1" xmlns="http://www.w3.org/2000/svg" xmlns:xlink="http://www.w3.org/1999/xlink" x="0px" y="0px"
	 width="19px" height="30px" viewBox="0 0 19 30" enable-background="new 0 0 19 30" xml:space="preserve">
<rect x="-17" y="-43" display="none" fill="#3A5783" width="65" height="78"/>
<g opacity="0.55">
	<path d="M16,28.991c-0.541,0-1.08-0.218-1.474-0.648L2.292,15.008l12.13-13.365c0.742-0.818,2.006-0.88,2.825-0.137
		c0.818,0.742,0.879,2.008,0.137,2.825L7.707,14.992l9.766,10.647c0.747,0.813,0.692,2.079-0.122,2.825
		C16.967,28.817,16.483,28.991,16,28.991z"/>
</g>
<path fill="#FFFFFF" fill-opacity="0.6" d="M18.209,24.972l-9.148-9.966l9.064-9.99c1.113-1.227,1.021-3.124-0.206-4.237
	c-1.227-1.114-3.125-1.021-4.238,0.206L0.938,15.029L13.79,29.028C14.381,29.673,15.189,30,16,30c0.725,0,1.452-0.261,2.028-0.79
	C19.249,28.09,19.33,26.191,18.209,24.972z M17.352,28.465c-0.384,0.353-0.869,0.526-1.352,0.526c-0.541,0-1.08-0.218-1.474-0.648
	L2.292,15.008l12.13-13.365c0.742-0.818,2.006-0.88,2.825-0.137c0.818,0.742,0.879,2.008,0.137,2.825L7.707,14.992l9.766,10.647
	C18.22,26.453,18.166,27.719,17.352,28.465z"/>
</svg>
